<?xml version="1.0" encoding="UTF-8"?>
<svg width="21px" height="20px" viewBox="0 0 21 20" version="1.1" xmlns="http://www.w3.org/2000/svg" xmlns:xlink="http://www.w3.org/1999/xlink">
    <title>形状结合</title>
    <g id="页面-1" stroke="none" stroke-width="1" fill="none" fill-rule="evenodd" opacity="0.616386144">
        <g id="0001" transform="translate(-13.000000, -21.000000)" fill="#000">
            <path d="M16.28,35.32 C17.6054834,35.32 18.68,36.3945166 18.68,37.72 C18.68,39.0454834 17.6054834,40.12 16.28,40.12 C14.9545166,40.12 13.88,39.0454834 13.88,37.72 C13.88,36.3945166 14.9545166,35.32 16.28,35.32 Z M23.96,35.32 C25.2854834,35.32 26.36,36.3945166 26.36,37.72 C26.36,39.0454834 25.2854834,40.12 23.96,40.12 C22.6345166,40.12 21.56,39.0454834 21.56,37.72 C21.56,36.3945166 22.6345166,35.32 23.96,35.32 Z M30.68,35.32 C32.0054834,35.32 33.08,36.3945166 33.08,37.72 C33.08,39.0454834 32.0054834,40.12 30.68,40.12 C29.3545166,40.12 28.28,39.0454834 28.28,37.72 C28.28,36.3945166 29.3545166,35.32 30.68,35.32 Z M16.28,28.6 C17.6054834,28.6 18.68,29.6745166 18.68,31 C18.68,32.3254834 17.6054834,33.4 16.28,33.4 C14.9545166,33.4 13.88,32.3254834 13.88,31 C13.88,29.6745166 14.9545166,28.6 16.28,28.6 Z M23.96,28.6 C25.2854834,28.6 26.36,29.6745166 26.36,31 C26.36,32.3254834 25.2854834,33.4 23.96,33.4 C22.6345166,33.4 21.56,32.3254834 21.56,31 C21.56,29.6745166 22.6345166,28.6 23.96,28.6 Z M30.68,28.6 C32.0054834,28.6 33.08,29.6745166 33.08,31 C33.08,32.3254834 32.0054834,33.4 30.68,33.4 C29.3545166,33.4 28.28,32.3254834 28.28,31 C28.28,29.6745166 29.3545166,28.6 30.68,28.6 Z M16.28,21.88 C17.6054834,21.88 18.68,22.9545166 18.68,24.28 C18.68,25.6054834 17.6054834,26.68 16.28,26.68 C14.9545166,26.68 13.88,25.6054834 13.88,24.28 C13.88,22.9545166 14.9545166,21.88 16.28,21.88 Z M23.96,21.88 C25.2854834,21.88 26.36,22.9545166 26.36,24.28 C26.36,25.6054834 25.2854834,26.68 23.96,26.68 C22.6345166,26.68 21.56,25.6054834 21.56,24.28 C21.56,22.9545166 22.6345166,21.88 23.96,21.88 Z M30.68,21.88 C32.0054834,21.88 33.08,22.9545166 33.08,24.28 C33.08,25.6054834 32.0054834,26.68 30.68,26.68 C29.3545166,26.68 28.28,25.6054834 28.28,24.28 C28.28,22.9545166 29.3545166,21.88 30.68,21.88 Z" id="形状结合"></path>
        </g>
    </g>
</svg>